<svg width="100" height="100" viewBox="0 0 100 100" fill="none" xmlns="http://www.w3.org/2000/svg">
<rect width="100" height="100" rx="50" fill="#0F0F0F"/>
<path d="M78.6566 61.5853V36.8476L79.5717 37.4213L81.0774 34.9533L78.6566 33.4356V30.1846H75.7939V31.6408L54.3152 18.1749L55.7477 15.3132L53.195 14L51.8719 16.6431L48.7198 14.667L47.2142 17.1351L50.572 19.2402L30.7901 58.7584H26.4144V61.6604H29.3375L28.7887 62.7569L31.3414 64.07L32.5476 61.6604H40.5257L35.1627 71.6509L23.3393 64.7307V27.1014H20.4766V63.0552L19.4313 62.4433L18 64.9566L20.4766 66.4062V70.087H23.3393V68.0817L33.794 74.2007L32.5922 76.4393L35.1066 77.8265L36.2737 75.6522L37.6824 76.4766L39.1137 73.9634L37.6425 73.1024L43.7847 61.6604H67.7384L69.1067 64.2921L71.6392 62.9392L70.9743 61.6604H72.2157V58.7584H69.4656L57.5974 35.9298L61.3292 28.9781L58.8148 27.591L55.994 32.8455L54.6411 30.2435L52.1088 31.5965L54.3502 35.9077L42.0836 58.7584H34.0002L53.0152 20.772L75.794 35.0529V63.5248L50.4733 80.6807L42.3879 75.9484L40.9565 78.4616L47.8198 82.4786L46.115 83.6337L47.6751 86L50.5306 84.0652L52.9682 85.492L54.3995 82.9788L53.1841 82.2674L75.794 66.9481V68.0919H78.6566V65.0085L82 62.7432L80.4399 60.3769L78.6566 61.5853ZM55.9535 38.992L66.2298 58.7584H45.3426L55.9535 38.992Z" fill="white"/>
</svg>
