<?xml version="1.0" encoding="UTF-8" standalone="no"?><svg xmlns="http://www.w3.org/2000/svg" xmlns:xlink= "http://www.w3.org/1999/xlink" width="600" height="390" aria-label="A chart." style="overflow: hidden;"><defs id="_ABSTRACT_RENDERER_ID_425"><clipPath id="_ABSTRACT_RENDERER_ID_426"><rect x="115" y="75" width="371" height="241"></rect></clipPath></defs><rect x="0" y="0" width="600" height="390" stroke="none" stroke-width="0" fill="#ffffff"></rect><g><text text-anchor="start" x="115" y="52.05" font-family="Arial" font-size="13" font-weight="bold" stroke="none" stroke-width="0" fill="#000000">Graph Title</text><rect x="115" y="41" width="371" height="13" stroke="none" stroke-width="0" fill-opacity="0" fill="#ffffff"></rect></g><g><rect x="115" y="368" width="371" height="13" stroke="none" stroke-width="0" fill-opacity="0" fill="#ffffff"></rect><g><rect x="115" y="368" width="58" height="13" stroke="none" stroke-width="0" fill-opacity="0" fill="#ffffff"></rect><g><text text-anchor="start" x="146" y="379.05" font-family="Arial" font-size="13" stroke="none" stroke-width="0" fill="#222222">Bar1</text></g><rect x="115" y="368" width="26" height="13" stroke="none" stroke-width="0" fill="#3366cc"></rect></g><g><rect x="194" y="368" width="58" height="13" stroke="none" stroke-width="0" fill-opacity="0" fill="#ffffff"></rect><g><text text-anchor="start" x="225" y="379.05" font-family="Arial" font-size="13" stroke="none" stroke-width="0" fill="#222222">Bar2</text></g><rect x="194" y="368" width="26" height="13" stroke="none" stroke-width="0" fill="#ff5024"></rect></g><g><rect x="273" y="368" width="58" height="13" stroke="none" stroke-width="0" fill-opacity="0" fill="#ffffff"></rect><g><text text-anchor="start" x="304" y="379.05" font-family="Arial" font-size="13" stroke="none" stroke-width="0" fill="#222222">Bar3</text></g><rect x="273" y="368" width="26" height="13" stroke="none" stroke-width="0" fill="#ff9900"></rect></g><g><rect x="352" y="368" width="58" height="13" stroke="none" stroke-width="0" fill-opacity="0" fill="#ffffff"></rect><g><text text-anchor="start" x="383" y="379.05" font-family="Arial" font-size="13" stroke="none" stroke-width="0" fill="#222222">Bar4</text></g><rect x="352" y="368" width="26" height="13" stroke="none" stroke-width="0" fill="#109618"></rect></g><path d="M445,381L445,368L432,375Z" stroke="none" stroke-width="0" fill="#cccccc"></path><g><text text-anchor="middle" x="459" y="379.05" font-family="Arial" font-size="13" stroke="none" stroke-width="0" fill="#0011cc">1/2</text></g><path d="M473,368L486,375L473,381Z" stroke="none" stroke-width="0" fill="#0011cc"></path></g><g><rect x="115" y="75" width="371" height="241" stroke="none" stroke-width="0" fill-opacity="0" fill="#ffffff"></rect><g clip-path="url(https://www.rapidtables.com/tools/bar-graph.html#_ABSTRACT_RENDERER_ID_426)"><g><rect x="115" y="315" width="371" height="1" stroke="none" stroke-width="0" fill="#cccccc"></rect><rect x="115" y="267" width="371" height="1" stroke="none" stroke-width="0" fill="#cccccc"></rect><rect x="115" y="219" width="371" height="1" stroke="none" stroke-width="0" fill="#cccccc"></rect><rect x="115" y="171" width="371" height="1" stroke="none" stroke-width="0" fill="#cccccc"></rect><rect x="115" y="123" width="371" height="1" stroke="none" stroke-width="0" fill="#cccccc"></rect><rect x="115" y="75" width="371" height="1" stroke="none" stroke-width="0" fill="#cccccc"></rect></g><g><rect x="133" y="258" width="7" height="57" stroke="none" stroke-width="0" fill="#3366cc"></rect><rect x="226" y="220" width="7" height="95" stroke="none" stroke-width="0" fill="#3366cc"></rect><rect x="318" y="297" width="7" height="18" stroke="none" stroke-width="0" fill="#3366cc"></rect><rect x="411" y="278" width="7" height="37" stroke="none" stroke-width="0" fill="#3366cc"></rect><rect x="141" y="258" width="8" height="57" stroke="none" stroke-width="0" fill="#ff5024"></rect><rect x="234" y="287" width="7" height="28" stroke="none" stroke-width="0" fill="#ff5024"></rect><rect x="326" y="86" width="8" height="229" stroke="none" stroke-width="0" fill="#ff5024"></rect><rect x="419" y="313.964" width="7" height="1.5360000000000014" stroke="none" stroke-width="0" fill="#ff5024"></rect><rect x="150" y="258" width="7" height="57" stroke="none" stroke-width="0" fill="#ff9900"></rect><rect x="242" y="220" width="8" height="95" stroke="none" stroke-width="0" fill="#ff9900"></rect><rect x="335" y="297" width="7" height="18" stroke="none" stroke-width="0" fill="#ff9900"></rect><rect x="427" y="278" width="8" height="37" stroke="none" stroke-width="0" fill="#ff9900"></rect><rect x="158" y="258" width="7" height="57" stroke="none" stroke-width="0" fill="#109618"></rect><rect x="251" y="220" width="7" height="95" stroke="none" stroke-width="0" fill="#109618"></rect><rect x="343" y="297" width="7" height="18" stroke="none" stroke-width="0" fill="#109618"></rect><rect x="436" y="278" width="7" height="37" stroke="none" stroke-width="0" fill="#109618"></rect><rect x="166" y="258" width="8" height="57" stroke="none" stroke-width="0" fill="#990099"></rect><rect x="259" y="220" width="7" height="95" stroke="none" stroke-width="0" fill="#990099"></rect><rect x="351" y="297" width="8" height="18" stroke="none" stroke-width="0" fill="#990099"></rect><rect x="444" y="278" width="7" height="37" stroke="none" stroke-width="0" fill="#990099"></rect><rect x="175" y="258" width="7" height="57" stroke="none" stroke-width="0" fill="#0099c6"></rect><rect x="267" y="220" width="8" height="95" stroke="none" stroke-width="0" fill="#0099c6"></rect><rect x="360" y="297" width="7" height="18" stroke="none" stroke-width="0" fill="#0099c6"></rect><rect x="452" y="278" width="8" height="37" stroke="none" stroke-width="0" fill="#0099c6"></rect><rect x="183" y="258" width="7" height="57" stroke="none" stroke-width="0" fill="#cccc00"></rect><rect x="276" y="220" width="7" height="95" stroke="none" stroke-width="0" fill="#cccc00"></rect><rect x="368" y="297" width="7" height="18" stroke="none" stroke-width="0" fill="#cccc00"></rect><rect x="461" y="278" width="7" height="37" stroke="none" stroke-width="0" fill="#cccc00"></rect></g><g><rect x="115" y="315" width="371" height="1" stroke="none" stroke-width="0" fill="#333333"></rect></g></g><g></g><g><g><text text-anchor="middle" x="161.75" y="335.05" font-family="Arial" font-size="13" stroke="none" stroke-width="0" fill="#222222">name 1</text></g><g><text text-anchor="middle" x="254.25" y="335.05" font-family="Arial" font-size="13" stroke="none" stroke-width="0" fill="#222222">name 2</text></g><g><text text-anchor="middle" x="346.75" y="335.05" font-family="Arial" font-size="13" stroke="none" stroke-width="0" fill="#222222">name 3</text></g><g><text text-anchor="middle" x="439.25" y="335.05" font-family="Arial" font-size="13" stroke="none" stroke-width="0" fill="#222222">name 4</text></g><g><text text-anchor="end" x="102" y="320.05" font-family="Arial" font-size="13" stroke="none" stroke-width="0" fill="#444444">0</text></g><g><text text-anchor="end" x="102" y="272.05" font-family="Arial" font-size="13" stroke="none" stroke-width="0" fill="#444444">250</text></g><g><text text-anchor="end" x="102" y="224.05" font-family="Arial" font-size="13" stroke="none" stroke-width="0" fill="#444444">500</text></g><g><text text-anchor="end" x="102" y="176.05" font-family="Arial" font-size="13" stroke="none" stroke-width="0" fill="#444444">750</text></g><g><text text-anchor="end" x="102" y="128.05" font-family="Arial" font-size="13" stroke="none" stroke-width="0" fill="#444444">1,000</text></g><g><text text-anchor="end" x="102" y="80.05" font-family="Arial" font-size="13" stroke="none" stroke-width="0" fill="#444444">1,250</text></g></g></g><g><g><text text-anchor="middle" x="300.5" y="357.05" font-family="Arial" font-size="13" font-style="italic" stroke="none" stroke-width="0" fill="#222222">hLabel</text><rect x="115" y="346" width="371" height="13" stroke="none" stroke-width="0" fill-opacity="0" fill="#ffffff"></rect></g><g><text text-anchor="middle" x="39.05" y="195.5" font-family="Arial" font-size="13" font-style="italic" transform="rotate(-90 39.05 195.5)" stroke="none" stroke-width="0" fill="#222222">vLabel</text><path d="M27.999999999999996,316L28.00000000000001,75L41.00000000000001,75L40.99999999999999,316Z" stroke="none" stroke-width="0" fill-opacity="0" fill="#ffffff"></path></g></g><g></g></svg>