<?xml version="1.0" encoding="UTF-8"?>
<svg id="Layer_1" data-name="Layer 1" xmlns="http://www.w3.org/2000/svg" viewBox="0 0 159 159">
  <defs>
    <style>
      .cls-1 {
        fill: #fff;
      }

      .cls-2 {
        fill: #1d1d1d;
      }
    </style>
  </defs>
  <circle class="cls-2" cx="79.5" cy="79.5" r="79.5"/>
  <path class="cls-1" d="m124.1511,115.46717c-5.74419-10.08153-14.71371-17.93687-25.46467-22.30148,14.06838-10.55128,16.91954-30.50946,6.36826-44.57783-10.55128-14.06838-30.50946-16.91955-44.57783-6.36826-14.06838,10.55128-16.91954,30.50946-6.36826,44.57784,1.81031,2.41375,3.95451,4.55795,6.36826,6.36826-10.75096,4.36461-19.72048,12.21996-25.46467,22.30148-1.46638,2.35786-.7437,5.45803,1.61417,6.92441,2.35786,1.46639,5.45803.7437,6.92441-1.61416.05748-.09243.11195-.1867.16332-.28267,7.59164-13.12197,20.9985-20.94823,35.86756-20.94823s28.27592,7.83045,35.86756,20.94823c1.46637,2.35787,4.56653,3.08058,6.9244,1.61421,2.25032-1.39949,3.02801-4.3054,1.77749-6.64179m-66.35562-47.76197c0-12.03216,9.754-21.78616,21.78616-21.78616s21.78616,9.754,21.78616,21.78616-9.75399,21.78616-21.78616,21.78616c-12.02642-.01385-21.77231-9.75974-21.78616-21.78616"/>
</svg>